<svg width="243" height="81" viewBox="0 0 243 81" fill="none" xmlns="http://www.w3.org/2000/svg">
<path d="M15.4326 25.5674C17.8362 25.8312 19.7561 26.6373 21.1924 27.9856C22.6286 29.3339 23.3468 31.0047 23.3468 32.9979C23.3468 34.5221 22.9218 35.9144 22.0717 37.1748C21.251 38.4059 20.0932 39.3879 18.5983 40.1206C17.1327 40.8241 15.4912 41.1759 13.6739 41.1759C12.8239 41.1759 11.8419 41.1319 10.7281 41.044C10.347 41.0147 9.86339 40.9853 9.27716 40.956C8.69092 40.9267 8.03141 40.9121 7.29862 40.9121L4.13295 40.956C3.57603 40.9853 2.81392 41 1.84664 41C1.7587 41 1.71474 40.9121 1.71474 40.7362C1.71474 40.5603 1.7587 40.4724 1.84664 40.4724C2.78461 40.4724 3.48809 40.3991 3.95708 40.2526C4.42607 40.0767 4.7485 39.7836 4.92437 39.3732C5.12955 38.9628 5.23214 38.318 5.23214 37.4386V17.0816C5.23214 16.2316 5.12955 15.6014 4.92437 15.191C4.7485 14.7514 4.42607 14.4582 3.95708 14.3117C3.51741 14.1358 2.82858 14.0479 1.89061 14.0479C1.83198 14.0479 1.80267 13.9599 1.80267 13.7841C1.80267 13.6082 1.83198 13.5203 1.89061 13.5203L4.17692 13.5642C5.46664 13.6229 6.5072 13.6522 7.29862 13.6522C8.11935 13.6522 8.98404 13.6082 9.8927 13.5203C10.2151 13.491 10.5962 13.4616 11.0359 13.4323C11.5048 13.403 12.0325 13.3884 12.6187 13.3884C15.2274 13.3884 17.2206 13.9013 18.5983 14.9272C20.0052 15.9238 20.7087 17.3161 20.7087 19.1041C20.7087 20.4818 20.2397 21.7422 19.3018 22.8854C18.3931 24.0285 17.1034 24.9225 15.4326 25.5674ZM11.8712 14.2677C10.9333 14.2677 10.2884 14.4582 9.93667 14.8393C9.61424 15.2203 9.45303 15.9971 9.45303 17.1696V25.5234L11.2997 25.5674C13.0291 25.5674 14.3334 25.0105 15.2128 23.8966C16.0921 22.7535 16.5318 21.2879 16.5318 19.4999C16.5318 17.8291 16.1361 16.5394 15.3447 15.6307C14.5533 14.722 13.3955 14.2677 11.8712 14.2677ZM12.9704 40.1646C16.9275 40.1646 18.9061 38.1275 18.9061 34.0531C18.9061 31.8254 18.3198 30.0374 17.1474 28.6891C16.0042 27.3407 14.3188 26.6666 12.0911 26.6666C11.0359 26.6666 10.1565 26.6959 9.45303 26.7545V37.4386C9.45303 38.1128 9.54096 38.6404 9.71683 39.0215C9.89271 39.4025 10.2298 39.6956 10.7281 39.9008C11.2264 40.0767 11.9738 40.1646 12.9704 40.1646ZM50.1234 40.4724C50.2406 40.4724 50.2993 40.5603 50.2993 40.7362C50.2993 40.9121 50.2406 41 50.1234 41C49.5371 41 48.6285 40.9707 47.3974 40.9121C46.1663 40.8534 45.2869 40.8241 44.7593 40.8241C44.2903 40.8241 43.5576 40.8534 42.561 40.9121C41.623 40.9707 40.9635 41 40.5824 41C40.4652 41 40.4065 40.9121 40.4065 40.7362C40.4065 40.5603 40.4652 40.4724 40.5824 40.4724C41.2859 40.4724 41.7842 40.3845 42.0773 40.2086C42.3997 40.0327 42.561 39.7543 42.561 39.3732C42.561 38.9628 42.3411 38.274 41.9014 37.3067L39.1315 31.3711H33.6795L31.9208 35.592C31.4225 36.8231 31.1734 37.7611 31.1734 38.4059C31.1734 39.1387 31.4225 39.6663 31.9208 39.9887C32.4484 40.3112 33.2398 40.4724 34.2951 40.4724C34.4416 40.4724 34.5149 40.5603 34.5149 40.7362C34.5149 40.9121 34.4416 41 34.2951 41C33.8847 41 33.2985 40.9707 32.5363 40.9121C31.7156 40.8534 30.9535 40.8241 30.25 40.8241C29.5172 40.8241 28.6525 40.8534 27.6559 40.9121C26.7766 40.9707 26.0585 41 25.5015 41C25.355 41 25.2817 40.9121 25.2817 40.7362C25.2817 40.5603 25.355 40.4724 25.5015 40.4724C26.4102 40.4724 27.143 40.3405 27.6999 40.0767C28.2568 39.8129 28.7698 39.3292 29.2388 38.6258C29.7078 37.893 30.2647 36.7498 30.9095 35.1963L37.4168 19.7637C37.4754 19.6464 37.5633 19.5878 37.6806 19.5878C37.7978 19.5878 37.8711 19.6464 37.9004 19.7637L44.9792 34.9764C45.712 36.5593 46.3129 37.7317 46.7818 38.4938C47.2801 39.256 47.7638 39.7836 48.2328 40.0767C48.7311 40.3405 49.3613 40.4724 50.1234 40.4724ZM34.0752 30.3598H38.6478L36.2296 25.1717L34.0752 30.3598ZM76.3123 40.4724C76.4002 40.4724 76.4442 40.5603 76.4442 40.7362C76.4442 40.9121 76.4002 41 76.3123 41C75.4329 41 74.7441 40.9853 74.2458 40.956L71.4319 40.9121L68.6179 40.956C68.1196 40.9853 67.4308 41 66.5515 41C66.4635 41 66.4195 40.9121 66.4195 40.7362C66.4195 40.5603 66.4635 40.4724 66.5515 40.4724C67.4308 40.4724 68.061 40.3991 68.4421 40.2526C68.8524 40.106 69.1309 39.8275 69.2774 39.4172C69.424 38.9775 69.4973 38.318 69.4973 37.4386V31.1513H58.3295V37.4386C58.3295 38.318 58.4028 38.9775 58.5494 39.4172C58.6959 39.8275 58.9744 40.106 59.3847 40.2526C59.7951 40.3991 60.44 40.4724 61.3193 40.4724C61.3779 40.4724 61.4072 40.5603 61.4072 40.7362C61.4072 40.9121 61.3779 41 61.3193 41C60.44 41 59.7511 40.9853 59.2528 40.956L56.3949 40.9121L53.669 40.956C53.1413 40.9853 52.4232 41 51.5145 41C51.4559 41 51.4266 40.9121 51.4266 40.7362C51.4266 40.5603 51.4559 40.4724 51.5145 40.4724C52.3939 40.4724 53.0388 40.3991 53.4491 40.2526C53.8888 40.106 54.1819 39.8275 54.3285 39.4172C54.475 38.9775 54.5483 38.318 54.5483 37.4386V23.9845C54.5483 23.1052 54.475 22.4603 54.3285 22.05C54.1819 21.6396 53.8888 21.3611 53.4491 21.2146C53.0388 21.0387 52.4085 20.9508 51.5585 20.9508C51.4999 20.9508 51.4706 20.8628 51.4706 20.687C51.4706 20.5111 51.4999 20.4232 51.5585 20.4232L53.669 20.4671C54.8414 20.5258 55.7501 20.5551 56.3949 20.5551C57.157 20.5551 58.1243 20.5258 59.2968 20.4671L61.3193 20.4232C61.3779 20.4232 61.4072 20.5111 61.4072 20.687C61.4072 20.8628 61.3779 20.9508 61.3193 20.9508C60.4693 20.9508 59.8244 21.0387 59.3847 21.2146C58.9744 21.3905 58.6959 21.6982 58.5494 22.1379C58.4028 22.5483 58.3295 23.1931 58.3295 24.0725V30.096H69.4973V24.0725C69.4973 23.1931 69.424 22.5483 69.2774 22.1379C69.1309 21.6982 68.8524 21.3905 68.4421 21.2146C68.0317 21.0387 67.4015 20.9508 66.5515 20.9508C66.4635 20.9508 66.4195 20.8628 66.4195 20.687C66.4195 20.5111 66.4635 20.4232 66.5515 20.4232L68.574 20.4671C69.7464 20.5258 70.6991 20.5551 71.4319 20.5551C72.1353 20.5551 73.0733 20.5258 74.2458 20.4671L76.3123 20.4232C76.4002 20.4232 76.4442 20.5111 76.4442 20.687C76.4442 20.8628 76.4002 20.9508 76.3123 20.9508C75.4329 20.9508 74.788 21.0387 74.3777 21.2146C73.9673 21.3611 73.6889 21.6396 73.5423 22.05C73.3957 22.4603 73.3225 23.1052 73.3225 23.9845V37.4386C73.3225 38.318 73.3957 38.9775 73.5423 39.4172C73.6889 39.8275 73.9673 40.106 74.3777 40.2526C74.788 40.3991 75.4329 40.4724 76.3123 40.4724ZM84.7499 21.2146C82.1412 21.2146 80.3385 22.944 79.3419 26.4028C79.3126 26.4907 79.2246 26.5347 79.0781 26.5347C78.9315 26.5347 78.8583 26.4907 78.8583 26.4028C78.9755 25.4941 79.0927 24.307 79.21 22.8414C79.3566 21.3465 79.4298 20.218 79.4298 19.4559C79.4298 19.3093 79.5031 19.236 79.6497 19.236C79.8255 19.236 79.9135 19.3093 79.9135 19.4559C79.9135 19.8369 80.1333 20.0861 80.573 20.2033C81.0127 20.2913 81.5696 20.3352 82.2438 20.3352C84.7646 20.3939 86.9776 20.4232 88.8829 20.4232L92.708 20.3792C93.2063 20.3499 93.8805 20.3352 94.7305 20.3352C95.8444 20.3352 96.6798 20.2766 97.2367 20.1594C97.7936 20.0128 98.1454 19.7197 98.2919 19.28C98.3212 19.1921 98.4092 19.1481 98.5557 19.1481C98.7316 19.1481 98.8195 19.1921 98.8195 19.28C98.8195 19.4559 98.7902 19.8956 98.7316 20.599C98.7023 21.3318 98.6583 22.2552 98.5997 23.369C98.5411 24.4535 98.4971 25.4648 98.4678 26.4028C98.4678 26.4907 98.3799 26.5347 98.204 26.5347C98.0281 26.5347 97.9402 26.4907 97.9402 26.4028C97.7936 24.8199 97.266 23.5595 96.3573 22.6216C95.478 21.6836 94.3788 21.2146 93.0598 21.2146C92.1804 21.2146 91.5795 21.4051 91.2571 21.7862C90.964 22.1672 90.8174 22.9 90.8174 23.9845V37.4386C90.8174 38.318 90.8907 38.9775 91.0373 39.4172C91.2131 39.8275 91.5356 40.106 92.0046 40.2526C92.4735 40.3991 93.221 40.4724 94.2469 40.4724C94.3348 40.4724 94.3788 40.5603 94.3788 40.7362C94.3788 40.9121 94.3348 41 94.2469 41C93.3089 41 92.5615 40.9853 92.0046 40.956L88.7949 40.9121L85.7172 40.956C85.1603 40.9853 84.3835 41 83.3869 41C83.3283 41 83.299 40.9121 83.299 40.7362C83.299 40.5603 83.3283 40.4724 83.3869 40.4724C84.4128 40.4724 85.1603 40.3991 85.6293 40.2526C86.1276 40.106 86.45 39.8275 86.5965 39.4172C86.7724 38.9775 86.8604 38.318 86.8604 37.4386V23.8966C86.8604 23.1052 86.8164 22.5336 86.7284 22.1819C86.6405 21.8301 86.45 21.581 86.1569 21.4344C85.8638 21.2879 85.3948 21.2146 84.7499 21.2146ZM140.325 13.5203C140.384 13.5203 140.413 13.6082 140.413 13.7841C140.413 13.9599 140.384 14.0479 140.325 14.0479C139.27 14.0479 138.302 14.4436 137.423 15.235C136.544 16.0264 135.811 17.1696 135.225 18.6645L126.695 40.956C126.666 41.0733 126.504 41.1319 126.211 41.1319C125.918 41.1319 125.757 41.0733 125.728 40.956L120.056 28.821L115.439 40.956C115.41 41.0733 115.249 41.1319 114.956 41.1319C114.663 41.1319 114.501 41.0733 114.472 40.956L103.348 17.1696C102.733 15.8799 102.205 15.0445 101.765 14.6634C101.355 14.2531 100.725 14.0479 99.8748 14.0479C99.7868 14.0479 99.7429 13.9599 99.7429 13.7841C99.7429 13.6082 99.7868 13.5203 99.8748 13.5203L101.018 13.5642C101.663 13.6229 102.396 13.6522 103.216 13.6522C104.858 13.6522 106.353 13.6229 107.701 13.5642C108.111 13.5349 108.624 13.5203 109.24 13.5203C109.328 13.5203 109.372 13.6082 109.372 13.7841C109.372 13.9599 109.328 14.0479 109.24 14.0479C108.448 14.0479 107.877 14.1358 107.525 14.3117C107.203 14.4582 107.041 14.7514 107.041 15.191C107.041 15.6893 107.305 16.5101 107.833 17.6532L116.231 35.548L119.396 27.3701L114.604 17.1696C114.076 16.085 113.578 15.2936 113.109 14.7953C112.669 14.297 112.142 14.0479 111.526 14.0479C111.438 14.0479 111.394 13.9599 111.394 13.7841C111.394 13.6082 111.438 13.5203 111.526 13.5203L112.581 13.5642C113.226 13.6229 113.871 13.6522 114.516 13.6522C115.894 13.6522 117.11 13.6229 118.165 13.5642C118.458 13.5349 118.839 13.5203 119.308 13.5203C119.396 13.5203 119.44 13.6082 119.44 13.7841C119.44 13.9599 119.396 14.0479 119.308 14.0479C118.839 14.0479 118.502 14.1065 118.297 14.2237C118.121 14.3117 118.033 14.4876 118.033 14.7514C118.033 15.2203 118.385 16.1876 119.089 17.6532L121.463 22.6655L123.046 18.4886C123.573 17.111 123.837 16.0704 123.837 15.3669C123.837 14.4876 123.397 14.0479 122.518 14.0479C122.43 14.0479 122.386 13.9599 122.386 13.7841C122.386 13.6082 122.43 13.5203 122.518 13.5203C122.782 13.5203 123.09 13.5496 123.441 13.6082C123.793 13.6375 124.438 13.6522 125.376 13.6522C125.904 13.6522 126.519 13.6229 127.223 13.5642L128.937 13.5203C128.996 13.5203 129.025 13.6082 129.025 13.7841C129.025 13.9599 128.996 14.0479 128.937 14.0479C127.941 14.0479 127.061 14.4143 126.299 15.1471C125.537 15.8799 124.848 17.0523 124.233 18.6645L122.122 24.1165L127.53 35.548L133.95 18.7964C134.243 18.0343 134.389 17.3161 134.389 16.642C134.389 15.8212 134.14 15.191 133.642 14.7514C133.173 14.2824 132.499 14.0479 131.619 14.0479C131.531 14.0479 131.487 13.9599 131.487 13.7841C131.487 13.6082 131.531 13.5203 131.619 13.5203L133.554 13.5642C134.609 13.6229 135.562 13.6522 136.412 13.6522C136.998 13.6522 137.672 13.6229 138.434 13.5642L140.325 13.5203ZM149.79 41.5276C147.709 41.5276 145.848 41.044 144.206 40.0767C142.594 39.0801 141.334 37.7611 140.425 36.1196C139.546 34.4781 139.106 32.6901 139.106 30.7556C139.106 28.4986 139.678 26.5493 140.821 24.9079C141.993 23.2664 143.488 22.0207 145.306 21.1706C147.123 20.3206 148.984 19.8956 150.89 19.8956C152.971 19.8956 154.803 20.4085 156.385 21.4344C157.968 22.431 159.185 23.7354 160.035 25.3475C160.914 26.9597 161.354 28.6598 161.354 30.4478C161.354 32.4117 160.841 34.2436 159.815 35.9437C158.789 37.6438 157.382 39.0068 155.594 40.0327C153.835 41.0293 151.901 41.5276 149.79 41.5276ZM150.846 40.5603C152.692 40.5603 154.172 39.7543 155.286 38.1421C156.429 36.53 157.001 34.3023 157.001 31.459C157.001 29.5245 156.693 27.7658 156.078 26.1829C155.462 24.5708 154.583 23.2957 153.44 22.3577C152.296 21.4198 150.948 20.9508 149.395 20.9508C147.489 20.9508 146.024 21.6836 144.998 23.1492C143.972 24.6147 143.459 26.7252 143.459 29.4805C143.459 31.5616 143.767 33.4522 144.382 35.1523C145.027 36.8231 145.907 38.1421 147.02 39.1094C148.134 40.0767 149.409 40.5603 150.846 40.5603ZM191.617 40.4724C191.676 40.4724 191.705 40.5603 191.705 40.7362C191.705 40.9121 191.676 41 191.617 41C190.826 41 190.196 40.9853 189.727 40.956L187.089 40.9121L184.099 40.956C183.6 40.9853 182.912 41 182.032 41C181.974 41 181.944 40.9121 181.944 40.7362C181.944 40.5603 181.974 40.4724 182.032 40.4724C182.941 40.4724 183.615 40.3991 184.055 40.2526C184.494 40.0767 184.788 39.7836 184.934 39.3732C185.11 38.9628 185.169 38.318 185.11 37.4386L184.407 23.4569L177.328 40.6922C177.269 40.8095 177.167 40.8681 177.02 40.8681C176.844 40.8681 176.727 40.8095 176.668 40.6922L168.314 24.3803L168.051 35.6799C168.021 37.3507 168.256 38.5671 168.754 39.3292C169.282 40.0913 170.102 40.4724 171.216 40.4724C171.304 40.4724 171.348 40.5603 171.348 40.7362C171.348 40.9121 171.304 41 171.216 41C170.542 41 170.014 40.9853 169.633 40.956L167.611 40.9121L165.588 40.956C165.178 40.9853 164.606 41 163.874 41C163.815 41 163.786 40.9121 163.786 40.7362C163.786 40.5603 163.815 40.4724 163.874 40.4724C165.017 40.4724 165.838 40.0913 166.336 39.3292C166.863 38.5671 167.142 37.3507 167.171 35.6799L167.435 22.9293C166.526 21.6103 165.398 20.9508 164.05 20.9508C163.991 20.9508 163.962 20.8628 163.962 20.687C163.962 20.5111 163.991 20.4232 164.05 20.4232L167.303 20.4671L169.809 20.4232C170.22 20.4232 170.557 20.5697 170.821 20.8628C171.084 21.1267 171.451 21.7422 171.92 22.7095L178.559 35.636L184.319 21.5224C184.436 21.1999 184.626 20.9361 184.89 20.7309C185.154 20.5258 185.418 20.4232 185.682 20.4232L188.276 20.4671L191.485 20.4232C191.544 20.4232 191.573 20.5111 191.573 20.687C191.573 20.8628 191.544 20.9508 191.485 20.9508C190.313 20.9508 189.477 21.156 188.979 21.5663C188.481 21.9474 188.276 22.7241 188.364 23.8966L189.067 37.4386C189.126 38.3473 189.214 39.0068 189.331 39.4172C189.448 39.8275 189.668 40.106 189.99 40.2526C190.342 40.3991 190.884 40.4724 191.617 40.4724ZM217.406 40.4724C217.524 40.4724 217.582 40.5603 217.582 40.7362C217.582 40.9121 217.524 41 217.406 41C216.82 41 215.911 40.9707 214.68 40.9121C213.449 40.8534 212.57 40.8241 212.042 40.8241C211.573 40.8241 210.84 40.8534 209.844 40.9121C208.906 40.9707 208.246 41 207.865 41C207.748 41 207.689 40.9121 207.689 40.7362C207.689 40.5603 207.748 40.4724 207.865 40.4724C208.569 40.4724 209.067 40.3845 209.36 40.2086C209.683 40.0327 209.844 39.7543 209.844 39.3732C209.844 38.9628 209.624 38.274 209.184 37.3067L206.414 31.3711H200.962L199.204 35.592C198.705 36.8231 198.456 37.7611 198.456 38.4059C198.456 39.1387 198.705 39.6663 199.204 39.9887C199.731 40.3112 200.523 40.4724 201.578 40.4724C201.724 40.4724 201.798 40.5603 201.798 40.7362C201.798 40.9121 201.724 41 201.578 41C201.168 41 200.581 40.9707 199.819 40.9121C198.999 40.8534 198.236 40.8241 197.533 40.8241C196.8 40.8241 195.935 40.8534 194.939 40.9121C194.059 40.9707 193.341 41 192.784 41C192.638 41 192.565 40.9121 192.565 40.7362C192.565 40.5603 192.638 40.4724 192.784 40.4724C193.693 40.4724 194.426 40.3405 194.983 40.0767C195.54 39.8129 196.053 39.3292 196.522 38.6258C196.991 37.893 197.548 36.7498 198.192 35.1963L204.7 19.7637C204.758 19.6464 204.846 19.5878 204.963 19.5878C205.081 19.5878 205.154 19.6464 205.183 19.7637L212.262 34.9764C212.995 36.5593 213.596 37.7317 214.065 38.4938C214.563 39.256 215.047 39.7836 215.516 40.0767C216.014 40.3405 216.644 40.4724 217.406 40.4724ZM201.358 30.3598H205.931L203.513 25.1717L201.358 30.3598ZM241.529 20.4232C241.617 20.4232 241.661 20.5111 241.661 20.687C241.661 20.8628 241.617 20.9508 241.529 20.9508C240.386 20.9508 239.55 21.3465 239.023 22.1379C238.495 22.9 238.231 24.1165 238.231 25.7872V41.4836C238.231 41.5423 238.158 41.5862 238.011 41.6155C237.865 41.6449 237.762 41.6302 237.703 41.5716L222.535 24.0285C222.476 23.9699 222.447 23.9406 222.447 23.9406V35.6799C222.447 37.3507 222.696 38.5671 223.194 39.3292C223.722 40.0913 224.543 40.4724 225.656 40.4724C225.715 40.4724 225.744 40.5603 225.744 40.7362C225.744 40.9121 225.715 41 225.656 41C224.953 41 224.411 40.9853 224.03 40.956L222.051 40.9121L220.029 40.956C219.618 40.9853 219.047 41 218.314 41C218.255 41 218.226 40.9121 218.226 40.7362C218.226 40.5603 218.255 40.4724 218.314 40.4724C219.457 40.4724 220.278 40.0913 220.776 39.3292C221.304 38.5671 221.567 37.3507 221.567 35.6799V22.9733C220.835 22.2405 220.19 21.7275 219.633 21.4344C219.105 21.112 218.578 20.9508 218.05 20.9508C217.991 20.9508 217.962 20.8628 217.962 20.687C217.962 20.5111 217.991 20.4232 218.05 20.4232L220.512 20.4671C220.776 20.4671 221.098 20.4671 221.479 20.4671C221.89 20.4378 222.725 20.4232 223.986 20.4232C224.22 20.4232 224.425 20.4965 224.601 20.643C224.777 20.7896 225.012 21.0827 225.305 21.5224L226.228 22.7095L237.352 35.548V25.7872C237.352 24.0871 237.103 22.856 236.604 22.0939C236.106 21.3318 235.3 20.9508 234.186 20.9508C234.098 20.9508 234.054 20.8628 234.054 20.687C234.054 20.5111 234.098 20.4232 234.186 20.4232L235.813 20.4671C236.634 20.5258 237.293 20.5551 237.791 20.5551C238.29 20.5551 238.979 20.5258 239.858 20.4671L241.529 20.4232Z" fill="#41455B"/>
<path d="M3.13285 48.4762H4.514V71.7536H15.1421V48.4762H16.5233V71.7536H27.1345V48.4762H28.4988V73H3.13285V48.4762ZM35.8257 54.7756V73H34.4614V54.7756H35.8257ZM47.8518 54.7756L39.6491 64.3089H35.3204L35.2698 63.0625H39.0427L46.0495 54.7756H47.8518ZM46.9422 73L38.8238 64.1573L39.6491 63.0288L48.8118 73H46.9422ZM50.193 64.2078V63.5678C50.193 62.2315 50.3839 61.0076 50.7657 59.8959C51.1587 58.7843 51.7089 57.8242 52.4163 57.0157C53.1237 56.196 53.9659 55.5616 54.9428 55.1124C55.9309 54.6633 57.0257 54.4387 58.2272 54.4387C59.4287 54.4387 60.5235 54.6633 61.5117 55.1124C62.4998 55.5616 63.3476 56.196 64.055 57.0157C64.7737 57.8242 65.3239 58.7843 65.7056 59.8959C66.0874 61.0076 66.2783 62.2315 66.2783 63.5678V64.2078C66.2783 65.544 66.0874 66.768 65.7056 67.8796C65.3239 68.9913 64.7793 69.957 64.0719 70.7767C63.3644 71.5852 62.5167 72.214 61.5285 72.6631C60.5516 73.1123 59.4624 73.3369 58.2609 73.3369C57.0482 73.3369 55.9478 73.1123 54.9596 72.6631C53.9827 72.214 53.1349 71.5852 52.4163 70.7767C51.7089 69.957 51.1587 68.9913 50.7657 67.8796C50.3839 66.768 50.193 65.544 50.193 64.2078ZM51.5404 63.5678V64.2078C51.5404 65.2633 51.6864 66.2683 51.9784 67.2228C52.2816 68.166 52.7195 69.0081 53.2921 69.7492C53.8648 70.4791 54.5666 71.0574 55.3976 71.4841C56.2285 71.8996 57.1829 72.1073 58.2609 72.1073C59.3164 72.1073 60.2597 71.8996 61.0906 71.4841C61.9215 71.0574 62.6177 70.4791 63.1792 69.7492C63.7518 69.0081 64.1841 68.166 64.4761 67.2228C64.7793 66.2683 64.9309 65.2633 64.9309 64.2078V63.5678C64.9309 62.5347 64.7793 61.5466 64.4761 60.6033C64.1841 59.6601 63.7518 58.818 63.1792 58.0769C62.6065 57.3357 61.9047 56.7518 61.0737 56.3251C60.2428 55.8872 59.294 55.6683 58.2272 55.6683C57.1605 55.6683 56.2117 55.8872 55.3807 56.3251C54.561 56.7518 53.8592 57.3357 53.2753 58.0769C52.7026 58.818 52.2703 59.6601 51.9784 60.6033C51.6864 61.5466 51.5404 62.5347 51.5404 63.5678ZM82.8184 54.7756V56.022H73.3357V54.7756H82.8184ZM83.7953 54.7756V73H82.4479V54.7756H83.7953ZM72.9146 54.7756H74.262L73.8915 63.1635C73.8353 64.5671 73.7399 65.8079 73.6051 66.8859C73.4704 67.9639 73.2795 68.8902 73.0325 69.665C72.7967 70.4398 72.4935 71.0743 72.1229 71.5683C71.7524 72.0624 71.3032 72.4273 70.7755 72.6631C70.2477 72.8877 69.6245 73 68.9059 73H68.2827V71.7536L68.889 71.7368C69.3719 71.7255 69.7986 71.6357 70.1691 71.4673C70.5509 71.2876 70.8765 71.0013 71.146 70.6083C71.4267 70.204 71.6626 69.665 71.8534 68.9913C72.0443 68.3176 72.2015 67.4866 72.3251 66.4985C72.4486 65.5104 72.5328 64.3313 72.5777 62.9614L72.9146 54.7756ZM100.74 69.6482V60.2328C100.74 59.2783 100.538 58.4586 100.133 57.7737C99.7291 57.0887 99.1396 56.5666 98.3648 56.2072C97.59 55.8367 96.6411 55.6514 95.5183 55.6514C94.474 55.6514 93.5364 55.8367 92.7054 56.2072C91.8857 56.5666 91.2401 57.0606 90.7685 57.6895C90.2968 58.3183 90.061 59.0201 90.061 59.7949L88.7136 59.778C88.7136 59.0818 88.8764 58.4137 89.202 57.7737C89.5389 57.1336 90.0105 56.5666 90.6169 56.0725C91.2344 55.5672 91.9587 55.1686 92.7896 54.8766C93.6318 54.5847 94.5526 54.4387 95.5519 54.4387C96.832 54.4387 97.9605 54.6577 98.9374 55.0956C99.9256 55.5223 100.695 56.1679 101.245 57.0326C101.795 57.8972 102.07 58.9752 102.07 60.2665V69.2608C102.07 69.9121 102.115 70.569 102.205 71.2315C102.295 71.894 102.418 72.4273 102.576 72.8316V73H101.11C100.987 72.5733 100.891 72.0512 100.824 71.4336C100.768 70.816 100.74 70.2209 100.74 69.6482ZM101.178 62.6582L101.211 63.8204H96.7647C95.6418 63.8204 94.6368 63.9271 93.7497 64.1404C92.8626 64.3538 92.1103 64.657 91.4927 65.05C90.8751 65.443 90.4035 65.909 90.0779 66.448C89.7522 66.9869 89.5894 67.5933 89.5894 68.267C89.5894 68.9632 89.7747 69.6033 90.1452 70.1872C90.5158 70.7711 91.0379 71.2371 91.7117 71.5852C92.3854 71.922 93.1658 72.0905 94.0529 72.0905C95.2656 72.0905 96.338 71.8827 97.27 71.4673C98.2132 71.0406 99.0048 70.4679 99.6449 69.7492C100.285 69.0194 100.751 68.1772 101.043 67.2228L101.632 68.1997C101.441 68.7948 101.144 69.3955 100.74 70.0019C100.335 70.6083 99.8133 71.1641 99.1732 71.6694C98.5332 72.1635 97.7809 72.5677 96.9162 72.8821C96.0516 73.1853 95.0691 73.3369 93.9687 73.3369C92.8121 73.3369 91.8015 73.1235 90.9369 72.6968C90.0835 72.2589 89.421 71.6638 88.9494 70.9114C88.4778 70.1479 88.242 69.2776 88.242 68.3007C88.242 67.4586 88.4328 66.6894 88.8146 65.9932C89.1964 65.297 89.7466 64.7019 90.4653 64.2078C91.1951 63.7025 92.0766 63.3207 93.1097 63.0625C94.154 62.793 95.3274 62.6582 96.6299 62.6582H101.178ZM122.484 72.1073C123.394 72.1073 124.253 71.9389 125.061 71.602C125.881 71.2651 126.56 70.7542 127.099 70.0693C127.65 69.3731 127.958 68.4916 128.026 67.4249H129.34C129.283 68.6376 128.935 69.6875 128.295 70.5746C127.655 71.4504 126.83 72.1298 125.819 72.6126C124.809 73.0954 123.697 73.3369 122.484 73.3369C121.272 73.3369 120.188 73.1123 119.234 72.6631C118.29 72.214 117.499 71.5795 116.859 70.7598C116.219 69.9401 115.73 68.9801 115.393 67.8796C115.068 66.768 114.905 65.5553 114.905 64.2415V63.5341C114.905 62.2203 115.068 61.0132 115.393 59.9128C115.73 58.8011 116.219 57.8354 116.859 57.0157C117.499 56.196 118.285 55.5616 119.217 55.1124C120.16 54.6633 121.238 54.4387 122.451 54.4387C123.675 54.4387 124.798 54.6914 125.819 55.1966C126.841 55.6907 127.666 56.415 128.295 57.3694C128.935 58.3127 129.283 59.4692 129.34 60.8391H128.026C127.97 59.7163 127.683 58.773 127.167 58.0095C126.65 57.2459 125.977 56.6676 125.146 56.2746C124.315 55.8704 123.416 55.6683 122.451 55.6683C121.373 55.6683 120.441 55.876 119.655 56.2915C118.869 56.7069 118.223 57.2796 117.718 58.0095C117.212 58.7281 116.842 59.5647 116.606 60.5191C116.37 61.4624 116.252 62.4673 116.252 63.5341V64.2415C116.252 65.3195 116.37 66.3357 116.606 67.2901C116.842 68.2334 117.212 69.0643 117.718 69.7829C118.223 70.5016 118.869 71.0686 119.655 71.4841C120.452 71.8996 121.395 72.1073 122.484 72.1073ZM146.183 54.7756V73H144.852V54.7756H146.183ZM145.728 62.9951V64.2246C145.279 64.4829 144.712 64.7356 144.027 64.9826C143.353 65.2184 142.64 65.4205 141.888 65.589C141.147 65.7462 140.434 65.8248 139.749 65.8248C138.21 65.8248 136.925 65.6283 135.892 65.2352C134.859 64.831 134.089 64.1348 133.584 63.1467C133.079 62.1473 132.826 60.7605 132.826 58.9864V54.7756H134.174V58.9864C134.174 60.4574 134.37 61.5971 134.763 62.4056C135.156 63.2141 135.762 63.7811 136.582 64.1067C137.413 64.4324 138.469 64.5952 139.749 64.5952C140.512 64.5615 141.287 64.4661 142.073 64.3089C142.87 64.1404 143.595 63.9383 144.246 63.7025C144.897 63.4667 145.391 63.2309 145.728 62.9951ZM163.127 69.6482V60.2328C163.127 59.2783 162.925 58.4586 162.521 57.7737C162.117 57.0887 161.527 56.5666 160.752 56.2072C159.978 55.8367 159.029 55.6514 157.906 55.6514C156.862 55.6514 155.924 55.8367 155.093 56.2072C154.273 56.5666 153.628 57.0606 153.156 57.6895C152.684 58.3183 152.449 59.0201 152.449 59.7949L151.101 59.778C151.101 59.0818 151.264 58.4137 151.59 57.7737C151.926 57.1336 152.398 56.5666 153.004 56.0725C153.622 55.5672 154.346 55.1686 155.177 54.8766C156.019 54.5847 156.94 54.4387 157.939 54.4387C159.22 54.4387 160.348 54.6577 161.325 55.0956C162.313 55.5223 163.082 56.1679 163.633 57.0326C164.183 57.8972 164.458 58.9752 164.458 60.2665V69.2608C164.458 69.9121 164.503 70.569 164.593 71.2315C164.682 71.894 164.806 72.4273 164.963 72.8316V73H163.498C163.374 72.5733 163.279 72.0512 163.211 71.4336C163.155 70.816 163.127 70.2209 163.127 69.6482ZM163.565 62.6582L163.599 63.8204H159.152C158.029 63.8204 157.024 63.9271 156.137 64.1404C155.25 64.3538 154.498 64.657 153.88 65.05C153.263 65.443 152.791 65.909 152.465 66.448C152.14 66.9869 151.977 67.5933 151.977 68.267C151.977 68.9632 152.162 69.6033 152.533 70.1872C152.903 70.7711 153.425 71.2371 154.099 71.5852C154.773 71.922 155.553 72.0905 156.44 72.0905C157.653 72.0905 158.725 71.8827 159.657 71.4673C160.601 71.0406 161.392 70.4679 162.032 69.7492C162.672 69.0194 163.138 68.1772 163.43 67.2228L164.02 68.1997C163.829 68.7948 163.531 69.3955 163.127 70.0019C162.723 70.6083 162.201 71.1641 161.561 71.6694C160.921 72.1635 160.168 72.5677 159.304 72.8821C158.439 73.1853 157.457 73.3369 156.356 73.3369C155.2 73.3369 154.189 73.1235 153.324 72.6968C152.471 72.2589 151.809 71.6638 151.337 70.9114C150.865 70.1479 150.629 69.2776 150.629 68.3007C150.629 67.4586 150.82 66.6894 151.202 65.9932C151.584 65.297 152.134 64.7019 152.853 64.2078C153.583 63.7025 154.464 63.3207 155.497 63.0625C156.541 62.793 157.715 62.6582 159.017 62.6582H163.565ZM176.551 72.1073C177.461 72.1073 178.32 71.9389 179.128 71.602C179.948 71.2651 180.627 70.7542 181.166 70.0693C181.717 69.3731 182.025 68.4916 182.093 67.4249H183.407C183.35 68.6376 183.002 69.6875 182.362 70.5746C181.722 71.4504 180.897 72.1298 179.886 72.6126C178.876 73.0954 177.764 73.3369 176.551 73.3369C175.339 73.3369 174.255 73.1123 173.301 72.6631C172.357 72.214 171.566 71.5795 170.926 70.7598C170.286 69.9401 169.797 68.9801 169.46 67.8796C169.135 66.768 168.972 65.5553 168.972 64.2415V63.5341C168.972 62.2203 169.135 61.0132 169.46 59.9128C169.797 58.8011 170.286 57.8354 170.926 57.0157C171.566 56.196 172.352 55.5616 173.284 55.1124C174.227 54.6633 175.305 54.4387 176.518 54.4387C177.742 54.4387 178.864 54.6914 179.886 55.1966C180.908 55.6907 181.733 56.415 182.362 57.3694C183.002 58.3127 183.35 59.4692 183.407 60.8391H182.093C182.037 59.7163 181.75 58.773 181.234 58.0095C180.717 57.2459 180.043 56.6676 179.213 56.2746C178.382 55.8704 177.483 55.6683 176.518 55.6683C175.44 55.6683 174.508 55.876 173.722 56.2915C172.936 56.7069 172.29 57.2796 171.785 58.0095C171.279 58.7281 170.909 59.5647 170.673 60.5191C170.437 61.4624 170.319 62.4673 170.319 63.5341V64.2415C170.319 65.3195 170.437 66.3357 170.673 67.2901C170.909 68.2334 171.279 69.0643 171.785 69.7829C172.29 70.5016 172.936 71.0686 173.722 71.4841C174.519 71.8996 175.462 72.1073 176.551 72.1073ZM193.63 54.7756V73H192.283V54.7756H193.63ZM200.57 54.7756V56.0051H185.647V54.7756H200.57ZM204.915 61.5803H211.131C212.557 61.5803 213.758 61.8273 214.735 62.3214C215.712 62.8154 216.453 63.4948 216.958 64.3594C217.464 65.2128 217.716 66.1841 217.716 67.2733C217.716 68.1042 217.57 68.8678 217.278 69.564C216.998 70.2489 216.577 70.8497 216.015 71.3662C215.465 71.8827 214.78 72.287 213.96 72.5789C213.141 72.8596 212.197 73 211.131 73H204.225V54.7756H205.555V71.7704H211.131C212.377 71.7704 213.382 71.5571 214.146 71.1304C214.92 70.7037 215.482 70.1479 215.83 69.4629C216.189 68.778 216.369 68.0481 216.369 67.2733C216.369 66.521 216.189 65.8079 215.83 65.1342C215.482 64.4492 214.92 63.8934 214.146 63.4667C213.382 63.0288 212.377 62.8098 211.131 62.8098H204.915V61.5803ZM226.475 64.8479H228.024L223.106 73H221.573L226.475 64.8479ZM228.328 54.7756H235.233V73H233.903V56.0051H228.328C227.16 56.0051 226.211 56.2016 225.481 56.5946C224.751 56.9877 224.218 57.5042 223.881 58.1442C223.544 58.773 223.376 59.4524 223.376 60.1823C223.376 60.8672 223.522 61.5241 223.814 62.1529C224.105 62.7705 224.571 63.2814 225.212 63.6857C225.852 64.0787 226.677 64.2752 227.688 64.2752H234.543V65.5216H227.688C226.778 65.5216 225.969 65.3868 225.262 65.1173C224.566 64.8479 223.976 64.4717 223.494 63.9888C223.011 63.506 222.646 62.9389 222.399 62.2877C222.152 61.6252 222.028 60.9121 222.028 60.1486C222.028 59.3738 222.169 58.6608 222.449 58.0095C222.73 57.3582 223.134 56.7911 223.662 56.3083C224.19 55.8142 224.847 55.4381 225.633 55.1798C226.419 54.9103 227.317 54.7756 228.328 54.7756Z" fill="#FEB7D1"/>
</svg>
