<svg width="48" height="48" viewBox="0 0 48 48" fill="none" xmlns="http://www.w3.org/2000/svg">
<path fill-rule="evenodd" clip-rule="evenodd" d="M20.7717 16.7146C20.3083 16.4365 19.7312 16.4292 19.2609 16.6955C18.7906 16.9618 18.4999 17.4604 18.4999 18.0008V30.0008C18.4999 30.5412 18.7906 31.0398 19.2609 31.3061C19.7312 31.5724 20.3083 31.5651 20.7717 31.287L30.7717 25.287C31.2235 25.0159 31.4999 24.5277 31.4999 24.0008C31.4999 23.4739 31.2235 22.9856 30.7717 22.7146L20.7717 16.7146ZM27.0845 24.0008L21.4999 27.3515V20.6501L27.0845 24.0008Z" fill="#C12C50"/>
<path fill-rule="evenodd" clip-rule="evenodd" d="M34.0613 9.28336C27.364 8.75939 20.636 8.75939 13.9387 9.28335L9.4573 9.63396C6.73217 9.84716 4.5028 11.8896 4.05233 14.5857C3.0108 20.8192 3.0108 27.1824 4.05233 33.4159C4.5028 36.112 6.73217 38.1544 9.45731 38.3676L13.9387 38.7182C20.636 39.2422 27.364 39.2422 34.0613 38.7182L38.5427 38.3676C41.2678 38.1544 43.4972 36.112 43.9477 33.4159C44.9892 27.1824 44.9892 20.8192 43.9477 14.5857C43.4972 11.8896 41.2678 9.84716 38.5427 9.63396L34.0613 9.28336ZM14.1727 12.2742C20.7142 11.7624 27.2858 11.7624 33.8273 12.2742L38.3087 12.6248C39.6599 12.7305 40.7653 13.7432 40.9887 15.0801C41.9755 20.9863 41.9755 27.0153 40.9887 32.9215C40.7653 34.2584 39.6599 35.2711 38.3087 35.3768L33.8273 35.7274C27.2858 36.2391 20.7142 36.2391 14.1727 35.7274L9.6913 35.3768C8.34007 35.2711 7.23467 34.2584 7.01131 32.9215C6.02447 27.0153 6.02447 20.9863 7.01131 15.0801C7.23467 13.7432 8.34007 12.7305 9.6913 12.6248L14.1727 12.2742Z" fill="#C12C50"/>
</svg>
